<?xml version="1.0" encoding="UTF-8" standalone="no"?>
<svg 
  version="1.1"
  width="60"
  height="60"
  viewBox="0 0 60 60"
  xmlns="http://www.w3.org/2000/svg"
  xmlns:svg="http://www.w3.org/2000/svg">
  <g
    transform="translate(-3.3763642,-2.1447299)">
    <path style="fill:#738a1c;stroke:none;stroke-width:0.32"
      d="m 30.93142,2.6543007 c -3.643072,1.570723 -1.30448,7.4684833 2.48112,5.8913948 3.94944,-1.64528 1.31296,-7.5272667 -2.48112,-5.8913948 m -10.93008,1.185699 c -1.165216,4.4830078 1.155648,7.9925443 4.8,10.5600003 0.84912,-4.18736 0.221568,-9.8734725 -4.8,-10.5600003 M 39.52134,14.4 C 41.22918,13.305216 48.332545,6.0532475 43.7671,4.3081275 39.30086,2.6007423 39.30246,12.2392 39.52134,14.4 m -13.76,-7.3600005 c 0.986912,3.7851525 -0.653312,8.5257285 4.16,9.2800005 -0.14688,-3.541344 -1.275584,-7.0420485 -4.16,-9.2800005 m 12.48,0 C 35.9063,9.9140151 34.9095,12.690528 34.40134,16.32 c 4.45344,-0.618528 4.20736,-5.428096 3.84,-9.2800005 M 12.656796,10.278912 c -3.9715525,1.087712 -2.429952,7.307232 1.569088,6.247744 3.9992,-1.05952 2.381696,-7.3297925 -1.569088,-6.247744 m 37.451749,0.01005 c -3.992005,1.24512 -2.16,7.50176 1.8656,6.240832 4.00128,-1.253248 2.11776,-7.4832965 -1.8656,-6.240832 M 18.72134,10.240002 c 0.329696,2.93632 3.60096,12.50272 5.76,5.44 l -5.76,-5.44 m 26.56,0 c -2.18624,3.056928 -5.87712,4.991584 -3.84,8.96 2.73888,-1.822048 4.57312,-5.660608 3.84,-8.96 m -19.52,6.4 -1.92,4.16 c 3.869376,2.050816 5.367648,1.575264 6.08,-2.88 l -4.16,-1.28 m 13.12,0 c -9.926624,2.618496 4.0288,9.663232 0,0 m -8.96,6.72 h 4.48 l -1.28,-5.44 c -2.360192,0.60704 -2.649472,3.354656 -3.2,5.44 m -19.84,-4.48 v 0.32 c 3.427904,2.095776 5.151904,6.109216 9.28,3.52 -2.484704,-2.61936 -5.724512,-3.74864 -9.28,-3.84 m 35.2,3.2 v 0.96 c 3.974085,1.955072 5.862405,-1.663904 8.960005,-3.84 -3.24992,-0.76048 -6.32896,1.206496 -8.960005,2.88 m -41.6000008,-1.92 c 1.3361923,4.83376 6.2563203,5.226688 10.5600008,4.8 -2.110688,-4.085376 -6.1768325,-6.189792 -10.5600008,-4.8 m 46.4000058,4.8 c 2.16704,0.219488 11.6704,0.196 10.07648,-4.24752 -1.656,-4.615136 -9.0192,2.594592 -10.07648,4.24752 m -25.920005,2.56 3.2,-3.52 c -5.031328,-2.27712 -5.541728,-1.315776 -3.2,3.52 m 12.8,-3.52 3.52,3.52 c 1.9968,-5.208128 1.72096,-5.599712 -3.52,-3.52 m -20.16,1.6 0.96,4.16 5.12,-1.28 c -1.106784,-3.701856 -2.636576,-4.417888 -6.08,-2.88 m 31.04,0 c -9.52928,-3.494944 -2.8928,9.468159 0,0 M 29.0759,25.223586 c -8.793504,4.1608 -2.659456,17.998175 6.1984,14.080415 8.99456,-3.97824 2.56512,-18.226975 -6.1984,-14.080415 M 7.2013395,25.920002 c 2.2784,2.837312 5.8062405,3.769952 9.2800005,4.16 -1.143648,-4.832032 -5.203488,-3.36128 -9.2800005,-4.16 m 40.9600055,4.16 c 3.56608,-0.422624 6.77088,-1.488896 9.28,-4.16 -3.87168,0.650048 -8.7296,-0.726688 -9.28,4.16 M 4.6809232,29.168962 c -3.78357697,1.199552 -1.994428,7.256319 1.8547843,6.188159 4.1176965,-1.14272 2.137216,-7.453791 -1.8547843,-6.188159 m 53.1201018,-0.0028 c -3.95776,1.27728 -1.76864,7.585823 2.15616,6.114783 3.80576,-1.42624 1.67808,-7.352223 -2.15616,-6.114783 m -39.719685,2.19384 v 1.919999 l 5.12,1.28 c 0.947808,-4.706303 -1.562496,-3.932351 -5.12,-3.199999 m 23.04,-1.28 v 4.479999 l 5.44,-1.6 -0.32,-1.599999 -5.12,-1.28 m -33.9200005,8.639999 8.0000005,-0.32 1.28,-3.84 c -3.480832,0.14432 -7.1562885,1.23072 -9.2800005,4.16 m 10.8800005,-4.16 -1.28,4.48 c 3.533568,1.28864 4.8256,0.86976 6.08,-2.88 l -4.8,-1.6 m 25.6,6.08 4.16,-1.92 -1.28,-4.16 c -4.38912,0.77696 -5.01216,2.22016 -2.88,6.08 m 4.480005,-6.08 c 0.73856,4.71296 5.17728,3.44896 8.96,3.84 -2.40896,-2.53984 -5.51872,-3.6352 -8.96,-3.84 m -24.000005,2.56 c -2.805824,5.03264 -1.617824,5.25824 3.2,3.52 l -3.2,-3.52 m 12.8,3.2 c 4.80576,2.67904 5.7136,1.66976 3.52,-3.2 l -3.52,3.2 m -33.2800008,3.84 c 4.3056323,1.88576 8.2522248,-0.7408 10.5600008,-4.48 -4.18144,-0.84736 -9.1752965,-0.04192 -10.5600008,4.48 m 46.4000058,-4.48 c 2.5264,3.76096 6.0416,5.97568 10.56,4.8 -0.84928,-4.96768 -6.36832,-5.56032 -10.56,-4.8 m -34.240005,0.32 -5.76,5.44 v 0.32 c 3.489536,-0.20736 7.140064,-1.20832 9.28,-4.16 l -3.52,-1.6 m 29.44,1.6 c 2.09536,3.02528 5.778565,3.95264 9.280005,4.16 v -0.32 l -5.76,-5.44 -3.520005,1.6 m -15.36,-0.32 1.28,5.12 c 2.52736,-0.40992 2.72256,-3.03232 3.52,-5.12 h -4.8 m -6.08,2.56 1.92,4.16 4.16,-1.28 -1.6,-5.12 -4.48,2.24 m 12.16,-2.24 -1.28,5.12 c 5.65248,1.4608 6.58752,-3.12992 1.28,-5.12 m -13.44,3.52 c -2.34224,2.78784 -3.436352,5.6848 -3.84,9.28 2.818272,-2.47616 6.737536,-5.67104 3.84,-9.28 m 19.2,0 c -2.56864,4.09568 1.30752,5.95104 3.52,9.28 h 0.32 c -0.09216,-3.58368 -1.25184,-6.74112 -3.84,-9.28 m -29.411232,2.98208 c -4.0162565,1.60608 -1.504736,7.65024 2.481152,5.88768 3.590208,-1.58752 1.117952,-7.32736 -2.481152,-5.88768 m 37.758437,-0.07968 c -3.981765,1.21664 -2.09248,7.32288 1.87424,6.07744 4.01024,-1.2592 2.05856,-7.27936 -1.87424,-6.07744 m -15.387205,-0.0224 c -0.33184,3.64288 1.2656,7.08128 3.84,9.6 -0.60992,-3.94816 0.6,-8.26656 -3.84,-9.6 m -8.64,1.28 c 0.562592,2.89056 0.421536,5.47584 -0.32,8.32 2.761184,-2.46272 4.008384,-5.62496 4.16,-9.28 l -3.84,0.96 m -1.28,0.96 c -1.62912,1.04896 -8.663584,8.59712 -3.980928,10.04672 4.409728,1.36512 4.437408,-7.79552 3.980928,-10.04672 m 14.72,0 c -0.22112,2.18336 -0.21824,11.6704 4.24608,10.07648 4.624645,-1.6512 -2.56544,-9.03936 -4.24608,-10.07648 m -7.673568,5.46816 c -4.092096,0.5936 -3.2368,7.18368 0.945568,6.38688 3.98208,-0.75872 3.07872,-6.97088 -0.945568,-6.38688 z"
    />
  </g>
</svg>
